<svg width="152" height="152" viewBox="0 0 152 152" fill="none" xmlns="http://www.w3.org/2000/svg">
<path d="M129.125 146.715C134.954 146.715 139.679 141.99 139.679 136.161C139.679 130.333 134.954 125.608 129.125 125.608C123.297 125.608 118.572 130.333 118.572 136.161C118.572 141.99 123.297 146.715 129.125 146.715Z" fill="black" stroke="black" stroke-width="10.5536" stroke-linecap="round" stroke-linejoin="round"/>
<path d="M58.768 146.715C64.5964 146.715 69.3216 141.99 69.3216 136.161C69.3216 130.333 64.5964 125.608 58.768 125.608C52.9394 125.608 48.2144 130.333 48.2144 136.161C48.2144 141.99 52.9394 146.715 58.768 146.715Z" fill="black" stroke="black" stroke-width="10.5536" stroke-linecap="round" stroke-linejoin="round"/>
<path d="M27.1072 20.0715H146.715L132.643 97.4646H41.1787L27.1072 20.0715ZM27.1072 20.0715C25.9346 15.381 20.0715 6 6 6" stroke="black" stroke-width="10.5536" stroke-linecap="round" stroke-linejoin="round"/>
<path d="M132.643 97.4646H41.1787H28.7309C16.1769 97.4646 9.51788 102.961 9.51788 111.536C9.51788 120.111 16.1769 125.608 28.7309 125.608H129.125" stroke="black" stroke-width="10.5536" stroke-linecap="round" stroke-linejoin="round"/>
</svg>
