<svg width="264" height="264" viewBox="0 0 264 264" fill="none" xmlns="http://www.w3.org/2000/svg">
<path d="M132.221 186.097C161.976 186.097 186.097 161.976 186.097 132.221C186.097 102.466 161.976 78.3452 132.221 78.3452C102.466 78.3452 78.3452 102.466 78.3452 132.221C78.3452 161.976 102.466 186.097 132.221 186.097Z" stroke="black" stroke-width="20.2036" stroke-linecap="round" stroke-linejoin="round"/>
<path d="M11 186.097V78.3452C11 41.1515 41.1515 11 78.3452 11H186.097C223.291 11 253.443 41.1515 253.443 78.3452V186.097C253.443 223.291 223.291 253.443 186.097 253.443H78.3452C41.1515 253.443 11 223.291 11 186.097Z" stroke="black" stroke-width="20.2036"/>
<path d="M206.301 58.2763L206.436 58.1266" stroke="black" stroke-width="20.2036" stroke-linecap="round" stroke-linejoin="round"/>
</svg>
