<svg width="260" height="216" viewBox="0 0 260 216" fill="none" xmlns="http://www.w3.org/2000/svg">
<path d="M251.443 9.11085C251.443 9.11085 229.205 22.248 216.839 25.9716C210.202 18.3403 201.382 12.9314 191.57 10.4765C181.759 8.02162 171.431 8.63908 161.982 12.2455C152.534 15.852 144.42 22.2733 138.74 30.641C133.059 39.0088 130.086 48.9192 130.221 59.032V70.0521C110.855 70.5542 91.6649 66.2591 74.3604 57.5491C57.0559 48.8392 42.1741 35.9848 31.0402 20.131C31.0402 20.131 -13.0402 119.312 86.1408 163.393C63.4452 178.798 36.4088 186.523 9 185.433C108.181 240.534 229.402 185.433 229.402 58.7014C229.392 55.6317 229.097 52.5697 228.521 49.5547C239.768 38.4628 251.443 9.11085 251.443 9.11085Z" stroke="black" stroke-width="16.5302" stroke-linecap="round" stroke-linejoin="round"/>
</svg>
